<?xml version="1.0" encoding="utf-8"?>
<!-- Generator: Adobe Illustrator 21.1.0, SVG Export Plug-In . SVG Version: 6.00 Build 0)  -->
<svg version="1.1" id="svg-icons" xmlns="http://www.w3.org/2000/svg" xmlns:xlink="http://www.w3.org/1999/xlink" x="0px" y="0px"
	 viewBox="0 0 32 32" style="enable-background:new 0 0 32 32;" xml:space="preserve">
<style type="text/css">
	.st0{fill:#0F0F0F;}
	.st1{fill:#FFFFFF;}
	.st2{fill:#D11D23;}
	.st3{fill:#00305C;}
</style>
<path id="search" d="M31.7,30.4l-7.8-7.8c4-4.6,5-12-0.3-18.9C9.1-7.5-7.5,9.1,3.7,23.7C10.6,29,18,28,22.6,24l7.8,7.8
	c0.2,0.2,0.4,0.3,0.7,0.3c0.2,0,0.5-0.1,0.7-0.3C32.1,31.4,32.1,30.7,31.7,30.4L31.7,30.4z M1.9,13.6c0-9.2,10.7-16,20.3-8.6
	c7.4,9.6,0.7,20.3-8.6,20.3C7.2,25.4,1.9,20.1,1.9,13.6L1.9,13.6z"/>
<path id="map-marker-o" d="M12.8,0C5.8,0,0,5.8,0,12.8c0,0.8,0.1,1.6,0.2,2.4c0,0,0,0.2,0.1,0.4c0.2,0.9,0.5,1.7,0.9,2.5
	c1.4,3.3,4.4,8.3,11.1,13.6c0.2,0.1,0.4,0.2,0.6,0.2c0.2,0,0.4-0.1,0.6-0.2c6.7-5.4,9.7-10.4,11.1-13.6c0.4-0.8,0.7-1.7,0.9-2.5
	c0.1-0.2,0.1-0.4,0.1-0.4c0.1-0.8,0.2-1.6,0.2-2.4C25.7,5.8,19.9,0,12.8,0L12.8,0z M23.6,14.9C23.6,14.9,23.6,14.9,23.6,14.9
	c0,0.1,0,0.2-0.1,0.3v0c-0.2,0.8-0.4,1.5-0.7,2.2c0,0,0,0,0,0c-1.3,3-4,7.5-10,12.5c-6-4.9-8.7-9.5-10-12.5c0,0,0,0,0,0
	c-0.3-0.7-0.6-1.4-0.7-2.2v0C2,15.1,2,15,2,15c0,0,0,0,0,0c-0.1-0.7-0.2-1.4-0.2-2.1c0-6.1,4.9-11,11-11c6.1,0,11,4.9,11,11
	C23.8,13.5,23.8,14.2,23.6,14.9L23.6,14.9z M23.6,14.9 M12.8,4.8c-4.5,0-8.1,3.7-8.1,8.1c0,4.5,3.7,8.1,8.1,8.1
	c4.5,0,8.1-3.7,8.1-8.1C21,8.5,17.3,4.8,12.8,4.8L12.8,4.8z M12.8,19.3c-3.5,0-6.3-2.8-6.3-6.3c0-3.5,2.8-6.3,6.3-6.3
	c3.5,0,6.3,2.8,6.3,6.3C19.2,16.5,16.3,19.3,12.8,19.3L12.8,19.3z M12.8,19.3"/>
<path id="heart-o" d="M29.4,2.6C27.7,0.9,25.5,0,23.2,0c-2.4,0-4.6,0.9-6.3,2.6L16,3.5l-0.9-0.9C13.4,0.9,11.2,0,8.8,0
	C6.5,0,4.3,0.9,2.6,2.6C0.9,4.3,0,6.5,0,8.9c0,2.4,0.9,4.6,2.6,6.3l12.7,12.7c0.2,0.2,0.4,0.3,0.6,0.3c0.2,0,0.5-0.1,0.6-0.3
	l12.8-12.7c1.7-1.7,2.6-3.9,2.6-6.3C32,6.5,31.1,4.3,29.4,2.6L29.4,2.6z M28.1,13.9L16,25.9L3.9,13.8c-1.3-1.3-2.1-3.1-2.1-5
	c0-1.9,0.7-3.6,2.1-5c1.3-1.3,3.1-2.1,5-2.1c1.9,0,3.6,0.7,5,2.1l1.5,1.5c0.4,0.4,0.9,0.4,1.3,0l1.5-1.5c1.3-1.3,3.1-2.1,5-2.1
	c1.9,0,3.6,0.7,5,2.1c1.3,1.3,2.1,3.1,2.1,5C30.2,10.8,29.4,12.5,28.1,13.9L28.1,13.9z M28.1,13.9"/>
<path id="bag-o" d="M25.6,27.7L23.8,7c0-0.5-0.4-0.8-0.9-0.8h-3.8C19.1,2.8,16.3,0,12.8,0C9.4,0,6.5,2.8,6.5,6.2H2.7
	C2.3,6.2,1.9,6.6,1.8,7L0,27.7c0,0,0,0.1,0,0.1C0,30.1,2.2,32,4.8,32h16C23.5,32,25.6,30.1,25.6,27.7C25.6,27.7,25.6,27.7,25.6,27.7
	L25.6,27.7z M12.8,1.8c2.5,0,4.5,2,4.6,4.5H8.3C8.3,3.8,10.3,1.8,12.8,1.8L12.8,1.8z M20.8,30.2h-16c-1.7,0-3-1.1-3-2.5L3.5,8h3v2.7
	c0,0.5,0.4,0.9,0.9,0.9s0.9-0.4,0.9-0.9V8h9.1v2.7c0,0.5,0.4,0.9,0.9,0.9c0.5,0,0.9-0.4,0.9-0.9V8h3l1.8,19.8
	C23.8,29.1,22.5,30.2,20.8,30.2L20.8,30.2z M20.8,30.2"/>
<path id="flickr-icon" d="M14.9,7.4c0,4.1-3.3,7.4-7.4,7.4S0,11.5,0,7.4S3.3,0,7.4,0S14.9,3.3,14.9,7.4z M24.6,0
	c-4.1,0-7.4,3.3-7.4,7.4s3.3,7.4,7.4,7.4S32,11.5,32,7.4S28.7,0,24.6,0z"/>
<path id="snapchat-o" d="M16.3,0L16.3,0L16.3,0h-0.6c-1.3,0-5.8,0.4-7.9,5.1c-0.7,1.6-0.5,4.3-0.4,6.5c0,0.3,0,0.5,0,0.8
	c-0.1,0.1-0.3,0.1-0.6,0.1c-0.4,0-0.9-0.1-1.5-0.4C5.2,12,5,12,4.8,12c-0.7,0-1.4,0.4-1.6,1.1c-0.1,0.5,0.1,1.1,1.6,1.7
	c0.1,0.1,0.3,0.1,0.5,0.2c0.6,0.2,1.5,0.5,1.8,1.1c0.1,0.3,0.1,0.7-0.1,1.2c0,0,0,0,0,0c-0.1,0.2-2,4.7-6.4,5.4
	C0.2,22.6,0,22.9,0,23.3c0,0.1,0,0.2,0.1,0.3c0.3,0.8,1.7,1.3,4.2,1.7c0.1,0.1,0.2,0.5,0.2,0.8c0.1,0.2,0.1,0.5,0.2,0.7
	c0.1,0.3,0.3,0.6,0.8,0.6c0.2,0,0.4,0,0.7-0.1c0.4-0.1,1-0.2,1.7-0.2c0.4,0,0.8,0,1.2,0.1c0.8,0.1,1.5,0.6,2.3,1.2
	c1.1,0.8,2.4,1.7,4.4,1.7c0.1,0,0.1,0,0.2,0c0.1,0,0.1,0,0.2,0c2,0,3.3-0.9,4.4-1.7c0.8-0.6,1.5-1,2.3-1.2c0.4-0.1,0.8-0.1,1.2-0.1
	c0.7,0,1.2,0.1,1.7,0.2c0.3,0.1,0.5,0.1,0.7,0.1h0h0c0.4,0,0.6-0.2,0.7-0.6c0.1-0.3,0.1-0.5,0.2-0.7c0.1-0.2,0.1-0.6,0.2-0.8
	c2.5-0.4,3.9-1,4.2-1.7c0-0.1,0.1-0.2,0.1-0.3c0-0.3-0.2-0.6-0.6-0.7c-4.4-0.7-6.3-5.2-6.4-5.4c0,0,0,0,0,0
	c-0.2-0.5-0.3-0.9-0.1-1.2c0.2-0.6,1.2-0.9,1.8-1.1c0.2-0.1,0.3-0.1,0.5-0.2c1.1-0.4,1.6-1,1.6-1.6c0-0.5-0.4-0.9-1-1.1
	C27.6,12,27.3,12,27.1,12c-0.2,0-0.4,0-0.6,0.1c-0.5,0.2-1,0.4-1.4,0.4c-0.3,0-0.4-0.1-0.5-0.1c0-0.2,0-0.4,0-0.7l0-0.1
	c0.1-2.2,0.3-4.9-0.4-6.5C22.1,0.4,17.6,0,16.3,0 M16.3,0.7c1.2,0,5.4,0.3,7.3,4.7c0.6,1.4,0.5,4.1,0.3,6.2c0,0.3,0,0.7-0.1,1l0,0.1
	l0.1,0.1c0,0,0.4,0.4,1.1,0.4h0h0c0.5,0,1-0.2,1.6-0.4c0.1,0,0.2-0.1,0.3-0.1c0.1,0,0.3,0,0.4,0.1l0,0c0.3,0.1,0.5,0.3,0.5,0.5
	c0,0.1-0.1,0.5-1.2,0.9c-0.1,0-0.3,0.1-0.4,0.1c-0.7,0.2-1.8,0.6-2.2,1.5c-0.2,0.5-0.1,1.1,0.2,1.7c0.1,0.3,2.2,5,6.9,5.8
	c0,0,0,0,0,0.1c-0.1,0.2-0.6,0.8-3.7,1.3c-0.5,0.1-0.6,0.6-0.7,1.3c-0.1,0.2-0.1,0.5-0.2,0.7c0,0.1,0,0.1-0.1,0.1h0
	c-0.1,0-0.4,0-0.6-0.1c-0.4-0.1-1.1-0.2-1.8-0.2c-0.4,0-0.9,0-1.3,0.1c-1,0.2-1.7,0.7-2.6,1.3c-1.1,0.8-2.3,1.6-4,1.6
	c-0.1,0-0.1,0-0.2,0h0h0h-0.1c-1.8,0-2.9-0.8-4-1.6c-0.8-0.6-1.6-1.1-2.6-1.3c-0.4-0.1-0.9-0.1-1.3-0.1c-0.8,0-1.4,0.1-1.8,0.2
	c-0.2,0.1-0.5,0.1-0.6,0.1c-0.1,0-0.1,0-0.1-0.1c-0.1-0.2-0.1-0.5-0.2-0.7c-0.1-0.6-0.3-1.2-0.7-1.3c-3.1-0.5-3.6-1.1-3.7-1.3
	c0,0,0-0.1,0-0.1c4.7-0.8,6.8-5.5,6.9-5.8c0.3-0.7,0.4-1.2,0.2-1.7c-0.4-0.9-1.5-1.2-2.2-1.5c-0.2-0.1-0.3-0.1-0.4-0.1
	c-0.9-0.4-1.2-0.7-1.2-1c0.1-0.3,0.5-0.5,0.9-0.5c0.1,0,0.2,0,0.2,0c0.6,0.3,1.2,0.5,1.8,0.5c0.8,0,1.2-0.4,1.2-0.4l0.1-0.1l0-0.1
	c0-0.3,0-0.6-0.1-1C7.9,9.4,7.7,6.8,8.4,5.4c1.9-4.4,6.1-4.7,7.3-4.7L16.3,0.7C16.3,0.7,16.3,0.7,16.3,0.7"/>
<path id="youtube-icon" d="M31.3,3.5C31,2.1,29.9,1,28.5,0.7C26,0,16,0,16,0S6,0,3.5,0.7C2.1,1,1,2.1,0.7,3.5C0,6,0,11.2,0,11.2
	s0,5.2,0.7,7.7c0.4,1.4,1.5,2.5,2.8,2.8C6,22.4,16,22.4,16,22.4s10,0,12.5-0.7c1.4-0.4,2.5-1.5,2.8-2.8c0.7-2.5,0.7-7.7,0.7-7.7
	S32,6,31.3,3.5z M12.8,16V6.4l8.3,4.8L12.8,16z"/>
<g id="instagram-new-o">
	<path d="M16,2.9c4.3,0,4.8,0,6.5,0.1c1.6,0.1,2.4,0.3,3,0.6c0.7,0.3,1.3,0.6,1.8,1.2c0.6,0.6,0.9,1.1,1.2,1.8C28.7,7.1,29,8,29,9.5
		c0.1,1.7,0.1,2.2,0.1,6.5s0,4.8-0.1,6.5c-0.1,1.6-0.3,2.4-0.6,3c-0.3,0.7-0.6,1.3-1.2,1.8c-0.6,0.6-1.1,0.9-1.8,1.2
		c-0.6,0.2-1.4,0.5-3,0.6c-1.7,0.1-2.2,0.1-6.5,0.1s-4.8,0-6.5-0.1c-1.6-0.1-2.4-0.3-3-0.6c-0.7-0.3-1.3-0.6-1.8-1.2
		c-0.6-0.6-0.9-1.1-1.2-1.8C3.3,24.9,3,24,3,22.5c-0.1-1.7-0.1-2.2-0.1-6.5s0-4.8,0.1-6.5C3,8,3.3,7.1,3.5,6.6
		c0.3-0.7,0.6-1.3,1.2-1.8c0.6-0.6,1.1-0.9,1.8-1.2C7.1,3.3,8,3,9.5,3C11.2,2.9,11.7,2.9,16,2.9 M16,0c-4.3,0-4.9,0-6.6,0.1
		C7.7,0.2,6.5,0.4,5.5,0.8c-1.1,0.4-1.9,1-2.8,1.8C1.8,3.6,1.2,4.5,0.8,5.5c-0.4,1-0.7,2.2-0.7,3.9C0,11.1,0,11.7,0,16
		c0,4.3,0,4.9,0.1,6.6c0.1,1.7,0.3,2.9,0.7,3.9c0.4,1.1,1,1.9,1.8,2.8c0.9,0.9,1.8,1.4,2.8,1.8c1,0.4,2.2,0.7,3.9,0.7
		C11.1,32,11.7,32,16,32s4.9,0,6.6-0.1c1.7-0.1,2.9-0.3,3.9-0.7c1.1-0.4,1.9-1,2.8-1.8c0.9-0.9,1.4-1.8,1.8-2.8
		c0.4-1,0.7-2.2,0.7-3.9C32,20.9,32,20.3,32,16s0-4.9-0.1-6.6c-0.1-1.7-0.3-2.9-0.7-3.9c-0.4-1.1-1-1.9-1.8-2.8
		c-0.9-0.9-1.8-1.4-2.8-1.8c-1-0.4-2.2-0.7-3.9-0.7C20.9,0,20.3,0,16,0L16,0z"/>
	<path d="M16,7.8c-4.5,0-8.2,3.7-8.2,8.2c0,4.5,3.7,8.2,8.2,8.2s8.2-3.7,8.2-8.2C24.2,11.5,20.5,7.8,16,7.8z M16,21.3
		c-2.9,0-5.3-2.4-5.3-5.3c0-2.9,2.4-5.3,5.3-5.3c2.9,0,5.3,2.4,5.3,5.3C21.3,18.9,18.9,21.3,16,21.3z"/>
	<circle cx="24.5" cy="7.5" r="1.9"/>
</g>
<path id="instagram" d="M4.1,0h23.8C30.2,0,32,1.8,32,4.1v23.8c0,2.3-1.8,4.1-4.1,4.1H4.1C1.8,32,0,30.2,0,27.9V4.1
	C0,1.8,1.8,0,4.1,0L4.1,0z M23.3,3.6c-0.8,0-1.4,0.6-1.4,1.4v3.4c0,0.8,0.6,1.4,1.4,1.4h3.6c0.8,0,1.4-0.6,1.4-1.4V5
	c0-0.8-0.6-1.4-1.4-1.4L23.3,3.6L23.3,3.6z M28.4,13.5h-2.8c0.3,0.9,0.4,1.8,0.4,2.7c0,5.3-4.5,9.6-9.9,9.6s-9.9-4.3-9.9-9.6
	c0-1,0.1-1.9,0.4-2.7H3.6V27c0,0.7,0.6,1.3,1.3,1.3h22.3c0.7,0,1.3-0.6,1.3-1.3L28.4,13.5L28.4,13.5z M16,9.7
	c-3.5,0-6.4,2.8-6.4,6.2s2.9,6.2,6.4,6.2c3.5,0,6.4-2.8,6.4-6.2S19.6,9.7,16,9.7z"/>
<path id="linkedin-rounded" d="M29.6,0H2.4C1.1,0,0,1,0,2.3v27.4C0,31,1.1,32,2.4,32h27.3c1.3,0,2.4-1,2.4-2.3V2.3
	C32,1,30.9,0,29.6,0z M9.5,27.3H4.7V12h4.8V27.3z M7.1,9.9c-1.5,0-2.8-1.2-2.8-2.8c0-1.5,1.2-2.8,2.8-2.8c1.5,0,2.8,1.2,2.8,2.8
	C9.9,8.7,8.6,9.9,7.1,9.9z M27.3,27.3h-4.7v-7.4c0-1.8,0-4-2.5-4c-2.5,0-2.8,1.9-2.8,3.9v7.6h-4.7V12H17v2.1h0.1
	c0.6-1.2,2.2-2.5,4.5-2.5c4.8,0,5.7,3.2,5.7,7.3V27.3z"/>
<path id="facebook-rounded" d="M30.2,0H1.8C0.8,0,0,0.8,0,1.8v28.5c0,1,0.8,1.8,1.8,1.8h15.3V19.6h-4.2v-4.8h4.2v-3.6
	c0-4.1,2.5-6.4,6.2-6.4C25.1,4.8,26.6,5,27,5v4.3l-2.6,0c-2,0-2.4,1-2.4,2.4v3.1h4.8l-0.6,4.8h-4.2V32h8.2c1,0,1.8-0.8,1.8-1.8V1.8
	C32,0.8,31.2,0,30.2,0z"/>
<path id="facebook" d="M11.6,32V17.4h5.3l0.8-5.7h-6V8.1c0-1.6,0.5-2.8,3-2.8l3.2,0V0.2C17.3,0.2,15.3,0,13.1,0
	C8.5,0,5.3,2.7,5.3,7.5v4.2H0v5.7h5.3V32H11.6z"/>
<path id="twitter" d="M32,3.1c-1.2,0.5-2.4,0.9-3.8,1c1.4-0.8,2.4-2.1,2.9-3.6c-1.3,0.8-2.7,1.3-4.2,1.6C25.8,0.8,24,0,22.2,0
	c-3.6,0-6.6,2.9-6.6,6.6c0,0.5,0.1,1,0.2,1.5C10.3,7.8,5.5,5.2,2.2,1.2c-0.6,1-0.9,2.1-0.9,3.3c0,2.3,1.2,4.3,2.9,5.5
	c-1.1,0-2.1-0.3-3-0.8c0,0,0,0.1,0,0.1c0,3.2,2.3,5.8,5.3,6.4c-0.6,0.1-1.1,0.2-1.7,0.2c-0.4,0-0.8,0-1.2-0.1
	c0.8,2.6,3.3,4.5,6.1,4.6c-2.2,1.8-5.1,2.8-8.2,2.8c-0.5,0-1.1,0-1.6-0.1c2.9,1.9,6.4,3,10.1,3c12.1,0,18.7-10,18.7-18.7
	c0-0.3,0-0.6,0-0.8C30,5.6,31.1,4.4,32,3.1z"/>
<path id="pinterest" d="M4.4,20.1l1-3c0,0-4-4.8,0.1-10.4c0,0,4.7-6,12-1.6c0,0,5.7,3.5,2.4,11.8c0,0-2.1,4.6-5.9,3.8
	c-3.8-0.8-1.8-5.1-1.8-5.1l1.1-3.2c0,0,1.1-3.9-1.5-4.6s-4,2.5-4,2.5s-1.3,3.2,0.2,5.3l-2.2,9.4c0,0-0.8,3.9-0.1,6.6
	c0,0,0.2,1.2,1.3-0.2c1.1-1.3,2.7-5.5,3.7-9.4c0,0,1.5,2,4.2,2s8.3-0.6,10.4-9.4S19.7,1.5,17.6,0.8C15.4,0,5.4-2,1.3,6.8
	C-2.9,15.7,4.4,20.1,4.4,20.1z"/>
<path id="linkedin" d="M0.5,10.6h6.6v21.3H0.5V10.6z M3.8,0C6,0,7.7,1.7,7.7,3.8C7.7,6,6,7.7,3.8,7.7C1.7,7.7,0,6,0,3.8
	C0,1.7,1.7,0,3.8,0 M11.3,31.9h6.6V21.4c0-2.8,0.5-5.5,4-5.5c3.4,0,3.4,3.2,3.4,5.7v10.4H32V20.2c0-5.7-1.2-10.2-8-10.2
	c-3.2,0-5.4,1.8-6.3,3.4h-0.1v-2.9h-6.4V31.9z"/>
<g id="product-list">
	<g>
		<path d="M24,0v8h8V0H24z M12,8h8V0h-8V8z M0,8h8V0H0V8z"/>
	</g>
</g>
<g id="product-grid">
	<g>
		<path d="M19.2,32H32V19.2H19.2V32z M0,32h12.8V19.2H0V32z M19.2,0v12.8H32V0H19.2z M0,12.8h12.8V0H0V12.8z"/>
	</g>
</g>
<path id="caret-up" d="M16,0L0,27.6h32L16,0"/>
<path id="caret-right" d="M27.6,16L0,0v32L27.6,16"/>
<path id="caret-down" d="M16,27.6L32,0H0L16,27.6"/>
<path id="caret-left" d="M0,16l27.6,16V0L0,16"/>
<path id="arrow-line-up" d="M15.4,0.3L0.3,15.4c-0.4,0.4-0.4,0.9,0,1.3c0.4,0.4,0.9,0.4,1.3,0L16,2.2l14.5,14.5
	c0.4,0.4,0.9,0.4,1.3,0c0.2-0.2,0.3-0.4,0.3-0.6c0-0.2-0.1-0.5-0.3-0.6L16.6,0.3C16.3-0.1,15.7-0.1,15.4,0.3L15.4,0.3z M15.4,0.3"/>
<path id="arrow-line-right" d="M16.6,15.4L1.5,0.3c-0.4-0.4-0.9-0.4-1.3,0c-0.4,0.4-0.4,0.9,0,1.3L14.7,16L0.3,30.5
	c-0.4,0.4-0.4,0.9,0,1.3C0.4,31.9,0.7,32,0.9,32c0.2,0,0.5-0.1,0.6-0.3l15.1-15.1C17,16.3,17,15.7,16.6,15.4L16.6,15.4z M16.6,15.4"
	/>
<path id="arrow-line-down" d="M16.6,16.6L31.7,1.5c0.4-0.4,0.4-0.9,0-1.3c-0.4-0.4-0.9-0.4-1.3,0L16,14.7L1.5,0.3
	c-0.4-0.4-0.9-0.4-1.3,0C0.1,0.4,0,0.7,0,0.9c0,0.2,0.1,0.5,0.3,0.6l15.1,15.1C15.7,17,16.3,17,16.6,16.6L16.6,16.6z M16.6,16.6"/>
<path id="arrow-line-left" d="M0.3,16.6l15.1,15.1c0.4,0.4,0.9,0.4,1.3,0c0.4-0.4,0.4-0.9,0-1.3L2.2,16L16.6,1.5
	c0.4-0.4,0.4-0.9,0-1.3C16.5,0.1,16.2,0,16,0c-0.2,0-0.5,0.1-0.6,0.3L0.3,15.4C-0.1,15.7-0.1,16.3,0.3,16.6L0.3,16.6z M0.3,16.6"/>
<path id="zoom-o" d="M31.8,30.9l-9.7-9.7c2-2.2,3.3-5.2,3.3-8.5c0-7-5.7-12.7-12.7-12.7S0,5.7,0,12.7s5.7,12.7,12.7,12.7
	c3.3,0,6.2-1.2,8.5-3.3l9.7,9.7c0.1,0.1,0.3,0.2,0.5,0.2c0.2,0,0.3-0.1,0.5-0.2C32.1,31.5,32.1,31.1,31.8,30.9z M1.3,12.7
	c0-6.2,5.1-11.3,11.3-11.3S24,6.4,24,12.7S18.9,24,12.7,24S1.3,18.9,1.3,12.7z M20,12.7c0,0.4-0.3,0.7-0.7,0.7h-6v6
	c0,0.4-0.3,0.7-0.7,0.7c-0.4,0-0.7-0.3-0.7-0.7v-6H6c-0.4,0-0.7-0.3-0.7-0.7C5.3,12.3,5.6,12,6,12h6V6c0-0.4,0.3-0.7,0.7-0.7
	c0.4,0,0.7,0.3,0.7,0.7v6h6C19.7,12,20,12.3,20,12.7z"/>
<path id="share-o" d="M24.4,20.6c-1.8,0-3.5,0.9-4.5,2.2l-8.8-4.9c0.2-0.6,0.3-1.2,0.3-1.9c0-0.7-0.1-1.3-0.3-1.9l8.8-4.9
	c1,1.4,2.7,2.2,4.5,2.2c3.1,0,5.7-2.6,5.7-5.7S27.6,0,24.4,0s-5.7,2.6-5.7,5.7c0,0.7,0.1,1.3,0.3,1.9l-8.8,4.9
	c-1-1.4-2.7-2.2-4.5-2.2C2.6,10.3,0,12.8,0,16s2.6,5.7,5.7,5.7c1.8,0,3.5-0.9,4.5-2.3l8.8,4.9c-0.2,0.6-0.3,1.2-0.3,1.9
	c0,3.1,2.6,5.7,5.7,5.7s5.7-2.6,5.7-5.7S27.6,20.6,24.4,20.6L24.4,20.6z M24.4,1.8c2.2,0,3.9,1.8,3.9,3.9c0,2.2-1.8,3.9-3.9,3.9
	c-2.2,0-3.9-1.8-3.9-3.9C20.5,3.6,22.3,1.8,24.4,1.8L24.4,1.8z M5.7,19.9c-2.2,0-3.9-1.8-3.9-3.9c0-2.2,1.8-3.9,3.9-3.9
	c2.2,0,3.9,1.8,3.9,3.9C9.7,18.2,7.9,19.9,5.7,19.9L5.7,19.9z M24.4,30.2c-2.2,0-3.9-1.8-3.9-3.9c0-2.2,1.8-3.9,3.9-3.9
	c2.2,0,3.9,1.8,3.9,3.9C28.4,28.4,26.6,30.2,24.4,30.2L24.4,30.2z M24.4,30.2"/>
<path id="user-o" d="M13.5,17.2h0.2c1.9,0,3.5-0.7,4.7-2c2.6-2.9,2.1-7.8,2.1-8.3c-0.2-3.5-1.8-5.2-3.2-6C16.2,0.3,15,0,13.7,0h-0.1
	c-0.7,0-2.2,0.1-3.6,0.9c-1.4,0.8-3.1,2.5-3.3,6c0,0.5-0.5,5.4,2.1,8.3C10,16.5,11.6,17.2,13.5,17.2L13.5,17.2z M8.5,7.1
	C8.5,7.1,8.5,7.1,8.5,7.1c0.2-4.8,3.6-5.3,5-5.3h0.1c1.8,0,4.8,0.8,5,5.3c0,0,0,0,0,0.1c0,0,0.5,4.6-1.6,6.9
	c-0.8,0.9-1.9,1.4-3.4,1.4h-0.1c-1.5,0-2.6-0.5-3.4-1.4C8.1,11.7,8.5,7.2,8.5,7.1L8.5,7.1z M8.5,7.1 M27.2,25.4L27.2,25.4
	c0-0.1,0-0.1,0-0.2c0-1.3-0.1-4.4-3-5.4c0,0,0,0-0.1,0c-3-0.8-5.5-2.5-5.5-2.5c-0.4-0.3-1-0.2-1.2,0.2c-0.3,0.4-0.2,1,0.2,1.2
	c0.1,0.1,2.8,1.9,6.1,2.8c1.5,0.6,1.7,2.2,1.8,3.7c0,0.1,0,0.1,0,0.2c0,0.6,0,1.5-0.1,2c-1.1,0.6-5.3,2.7-11.7,2.7
	c-6.4,0-10.6-2.1-11.7-2.7c-0.1-0.5-0.2-1.5-0.1-2c0-0.1,0-0.1,0-0.2c0-1.5,0.2-3.2,1.8-3.7c3.3-0.8,5.9-2.7,6.1-2.8
	c0.4-0.3,0.5-0.8,0.2-1.2c-0.3-0.4-0.8-0.5-1.2-0.2c0,0-2.5,1.7-5.5,2.5c0,0,0,0-0.1,0c-2.9,1-3,4.1-3,5.4c0,0.1,0,0.1,0,0.2v0
	c0,0.3,0,2.1,0.3,3c0.1,0.2,0.2,0.3,0.3,0.4C0.9,29,5.6,32,13.6,32s12.7-3,12.9-3.2c0.2-0.1,0.3-0.2,0.3-0.4
	C27.2,27.5,27.2,25.8,27.2,25.4L27.2,25.4z M27.2,25.4"/>
<path id="map-marker-alt-o" d="M11.3,7c-2.3,0-4.1,1.8-4.1,4.1c0,2.3,1.8,4.1,4.1,4.1c2.3,0,4.1-1.8,4.1-4.1C15.4,8.8,13.6,7,11.3,7
	L11.3,7z M11.3,14c-1.6,0-2.9-1.3-2.9-2.9c0-1.6,1.3-2.9,2.9-2.9c1.6,0,2.9,1.3,2.9,2.9C14.2,12.7,12.9,14,11.3,14L11.3,14z
	 M11.3,14 M19.1,3.3C17,1.2,14.2,0,11.2,0c-3,0-5.8,1.2-7.9,3.3C-0.6,7.2-1.1,14.6,2.2,19l9,13l9-12.9C23.5,14.6,23,7.2,19.1,3.3
	L19.1,3.3z M19.2,18.4l-8,11.6l-8-11.6c-3-4.1-2.6-10.7,0.9-14.2C6,2.2,8.5,1.2,11.2,1.2c2.7,0,5.2,1,7.1,2.9
	C21.8,7.6,22.3,14.3,19.2,18.4L19.2,18.4z M19.2,18.4"/>
<path id="user-alt-o" d="M27.3,4.7c-3-3-7-4.7-11.3-4.7S7.7,1.7,4.7,4.7c-3,3-4.7,7-4.7,11.3s1.7,8.3,4.7,11.3c3,3,7,4.7,11.3,4.7
	s8.3-1.7,11.3-4.7c3-3,4.7-7,4.7-11.3S30.3,7.7,27.3,4.7z M16,1.9c7.8,0,14.1,6.3,14.1,14.1c0,3.2-1.1,6.2-2.9,8.6
	c-1.4-3.2-4.1-5.7-7.4-6.8c1.6-1.2,2.7-3.1,2.7-5.3c0-3.6-2.9-6.6-6.6-6.6s-6.6,2.9-6.6,6.6c0,2.2,1.1,4.1,2.7,5.3
	c-3.3,1.1-6,3.5-7.4,6.8C3,22.2,1.9,19.2,1.9,16C1.9,8.2,8.2,1.9,16,1.9z M11.3,12.5c0-2.6,2.1-4.7,4.7-4.7s4.7,2.1,4.7,4.7
	s-2.1,4.7-4.7,4.7S11.3,15.1,11.3,12.5z M6.2,26.2c1.4-4.2,5.3-7.1,9.8-7.1s8.4,2.9,9.8,7.1c-2.5,2.5-6,4-9.8,4S8.7,28.6,6.2,26.2z"
	/>
<path id="gear" d="M27.6,12.1l-0.8-1.9c0,0,1.9-4.2,1.7-4.4L26,3.3c-0.2-0.2-4.4,1.8-4.4,1.8l-2-0.8c0,0-1.7-4.3-2-4.3h-3.5
	c-0.2,0-1.8,4.3-1.8,4.3l-2,0.8c0,0-4.3-1.8-4.5-1.7L3.4,5.9C3.2,6,5.2,10.2,5.2,10.2l-0.8,1.9c0,0-4.4,1.7-4.4,1.9v3.4
	c0,0.2,4.4,1.8,4.4,1.8l0.8,1.9c0,0-1.9,4.2-1.7,4.4L6,28c0.2,0.2,4.4-1.8,4.4-1.8l2,0.8c0,0,1.7,4.3,2,4.3h3.5
	c0.2,0,1.8-4.3,1.8-4.3l2-0.8c0,0,4.3,1.8,4.5,1.7l2.5-2.4c0.2-0.2-1.8-4.3-1.8-4.3l0.8-1.9c0,0,4.4-1.7,4.4-1.9v-3.4
	C32,13.6,27.6,12.1,27.6,12.1L27.6,12.1z M21.1,15.7c0,2.8-2.3,5-5.1,5c-2.8,0-5.1-2.2-5.1-5c0-2.8,2.3-5,5.1-5
	C18.8,10.6,21.1,12.9,21.1,15.7L21.1,15.7z M21.1,15.7"/>
<path id="eye" d="M16,0C9.9,0,4.3,3.3,0.3,8.8c-0.3,0.4-0.3,1.1,0,1.5c4.1,5.4,9.6,8.8,15.7,8.8c6.1,0,11.7-3.3,15.7-8.8
	c0.3-0.4,0.3-1.1,0-1.5C27.7,3.3,22.1,0,16,0L16,0z M16.4,16.3c-4.1,0.3-7.4-3.1-7.2-7.2c0.2-3.4,2.9-6.1,6.3-6.3
	c4.1-0.3,7.4,3.1,7.2,7.2C22.5,13.3,19.8,16,16.4,16.3L16.4,16.3z M16.2,13.2c-2.2,0.1-4-1.7-3.8-3.8C12.5,7.5,14,6,15.8,5.9
	c2.2-0.1,4,1.7,3.8,3.8C19.5,11.6,18,13,16.2,13.2L16.2,13.2z M16.2,13.2"/>
<path id="remove" d="M27.3,4.7c-6.2-6.2-16.4-6.2-22.6,0c-6.2,6.2-6.2,16.4,0,22.6c6.2,6.2,16.4,6.2,22.6,0
	C33.6,21.1,33.6,10.9,27.3,4.7L27.3,4.7z M22.3,22.3c-0.5,0.5-1.3,0.5-1.7,0L16,17.7l-4.8,4.8c-0.5,0.5-1.3,0.5-1.7,0
	c-0.5-0.5-0.5-1.3,0-1.7l4.8-4.8l-4.6-4.6c-0.5-0.5-0.5-1.3,0-1.7c0.5-0.5,1.3-0.5,1.7,0l4.6,4.6l4.4-4.4c0.5-0.5,1.3-0.5,1.7,0
	c0.5,0.5,0.5,1.3,0,1.7L17.7,16l4.6,4.6C22.8,21.1,22.8,21.8,22.3,22.3L22.3,22.3z M22.3,22.3"/>
<path id="caret-double-up-down" d="M7.5,0L0,13h15.1L7.5,0 M7.5,32l7.5-13H0L7.5,32"/>
<path id="caret-double-left-right" d="M32,7.5L19,0v15.1L32,7.5 M0,7.5l13,7.5V0L0,7.5"/>
<g id="close">
	<g>
		<polygon points="32,4.8 27.2,0 16,11.2 4.8,0 0,4.8 11.2,16 0,27.2 4.8,32 16,20.8 27.2,32 32,27.2 20.8,16 		"/>
	</g>
</g>
<path id="navicon" d="M31.6,21.4C31.3,21.2,31,21,30.7,21H1.3c-0.4,0-0.7,0.1-0.9,0.4C0.1,21.7,0,22,0,22.3V25
	c0,0.4,0.1,0.7,0.4,0.9c0.3,0.3,0.6,0.4,0.9,0.4h29.3c0.4,0,0.7-0.1,0.9-0.4c0.3-0.3,0.4-0.6,0.4-0.9v-2.6
	C32,22,31.9,21.7,31.6,21.4z M31.6,10.9c-0.3-0.3-0.6-0.4-0.9-0.4H1.3c-0.4,0-0.7,0.1-0.9,0.4C0.1,11.2,0,11.5,0,11.8v2.6
	c0,0.4,0.1,0.7,0.4,0.9c0.3,0.3,0.6,0.4,0.9,0.4h29.3c0.4,0,0.7-0.1,0.9-0.4c0.3-0.3,0.4-0.6,0.4-0.9v-2.6
	C32,11.5,31.9,11.2,31.6,10.9z M31.6,0.4C31.3,0.1,31,0,30.7,0H1.3C1,0,0.7,0.1,0.4,0.4C0.1,0.7,0,1,0,1.3v2.6
	c0,0.4,0.1,0.7,0.4,0.9C0.7,5.1,1,5.3,1.3,5.3h29.3c0.4,0,0.7-0.1,0.9-0.4C31.9,4.6,32,4.3,32,3.9V1.3C32,1,31.9,0.7,31.6,0.4z"/>
<path id="phone-o" class="st0" d="M26.8,19.1c-0.7-0.7-1.5-1.1-2.4-1.1c-0.9,0-1.7,0.4-2.5,1.1l-2.3,2.3c-0.2-0.1-0.4-0.2-0.6-0.3
	c-0.3-0.1-0.5-0.3-0.7-0.4c-2.1-1.3-4.1-3.1-5.9-5.4c-0.9-1.1-1.5-2.1-1.9-3.1c0.6-0.5,1.1-1.1,1.7-1.6c0.2-0.2,0.4-0.4,0.6-0.6
	c1.5-1.5,1.5-3.5,0-5l-2-2c-0.2-0.2-0.5-0.5-0.7-0.7C9.8,1.9,9.3,1.5,8.9,1.1C8.2,0.4,7.3,0,6.5,0S4.8,0.4,4,1.1l0,0L1.6,3.5
	C0.7,4.4,0.1,5.6,0,6.9c-0.2,2.1,0.4,4,0.9,5.3c1.2,3.1,2.9,6,5.5,9.1c3.1,3.7,6.9,6.7,11.2,8.8c1.6,0.8,3.8,1.7,6.3,1.9
	c0.2,0,0.3,0,0.5,0c1.7,0,3-0.6,4.1-1.8c0,0,0,0,0,0c0.4-0.5,0.8-0.9,1.3-1.3c0.3-0.3,0.6-0.6,0.9-0.9c0.7-0.7,1.1-1.6,1.1-2.5
	s-0.4-1.7-1.1-2.5L26.8,19.1z M29.4,26.6C29.4,26.6,29.4,26.6,29.4,26.6c-0.3,0.3-0.6,0.6-0.9,0.9c-0.5,0.5-0.9,0.9-1.4,1.4
	c-0.7,0.8-1.6,1.1-2.7,1.1c-0.1,0-0.2,0-0.3,0c-2.1-0.1-4.1-1-5.6-1.7c-4.1-2-7.6-4.8-10.6-8.3c-2.4-2.9-4.1-5.7-5.2-8.6
	C2.1,9.7,1.9,8.3,2,7C2,6.2,2.4,5.5,3,4.9l2.4-2.4c0.4-0.3,0.7-0.5,1.1-0.5c0.5,0,0.8,0.3,1,0.5l0,0C8,2.9,8.4,3.3,8.8,3.7
	C9.1,4,9.3,4.2,9.5,4.4l2,2c0.8,0.8,0.8,1.5,0,2.2c-0.2,0.2-0.4,0.4-0.6,0.6c-0.6,0.6-1.2,1.2-1.8,1.7c0,0,0,0,0,0
	c-0.6,0.6-0.5,1.2-0.4,1.6l0,0.1c0.5,1.2,1.2,2.4,2.3,3.8l0,0c2,2.4,4.1,4.3,6.4,5.8c0.3,0.2,0.6,0.3,0.9,0.5
	c0.3,0.1,0.5,0.3,0.7,0.4c0,0,0.1,0,0.1,0.1c0.2,0.1,0.5,0.2,0.7,0.2c0.6,0,1-0.4,1.1-0.5l2.5-2.5c0.2-0.2,0.6-0.5,1.1-0.5
	s0.8,0.3,1,0.5l0,0l3.9,3.9C30.1,25.1,30.1,25.9,29.4,26.6L29.4,26.6z"/>
<g id="gb-flag">
	<rect class="st1" width="32" height="16"/>
	<polyline class="st2" points="32,6.4 17.6,6.4 17.6,0 14.4,0 14.4,6.4 0,6.4 0,9.6 14.4,9.6 14.4,16 17.6,16 17.6,9.6 32,9.6 	"/>
	<path class="st2" d="M21.3,10.7h2.4l8.3,4.1V16 M10.7,5.3H8.3L0,1.2V0L10.7,5.3z M10.7,10.7h2.4L2.4,16H0L10.7,10.7z M21.3,5.3
		h-2.4L29.6,0H32L21.3,5.3z"/>
	<path class="st3" d="M0,10.7v3.5l7.1-3.5 M32,10.7v3.5l-7.1-3.5H32z M0,5.3V1.8l7.1,3.5H0z M32,5.3V1.8l-7.1,3.5H32z M13.3,16v-4.9
		L3.6,16H13.3z M18.7,16v-4.9l9.8,4.9H18.7z M13.3,0v4.9L3.6,0H13.3z M18.7,0v4.9L28.4,0H18.7z"/>
</g>
<g id="logo">
	<rect x="11.9" y="0" width="0.9" height="12.1"/>
	<rect x="15" y="0" width="0.9" height="12.1"/>
	<rect x="16.5" y="0" width="0.9" height="4"/>
	<rect x="19.6" y="0" width="0.9" height="4"/>
	<rect x="16.5" y="8" width="0.9" height="4"/>
	<rect x="18" y="8" width="0.9" height="4"/>
	<rect x="18" width="0.9" height="7.4"/>
	<rect x="19.6" y="4.7" width="0.9" height="7.4"/>
	<rect x="13.4" width="0.9" height="7.4"/>
	<path d="M3.5,15.8c0-0.5-0.1-1-0.5-1c-0.3,0-0.5,0.4-0.5,0.9c0,0.5,0.2,1,0.5,1C3.4,16.7,3.5,16.4,3.5,15.8 M2.1,15.9
		c0-0.8,0.4-1.1,1-1.1c0.5,0,0.8,0.4,0.8,1c0,0.8-0.4,1.1-1,1.1C2.4,16.8,2.1,16.5,2.1,15.9"/>
	<path d="M5.9,14.8H5.2v0.1c0.2,0,0.2,0.1,0.2,0.2c0,0,0,0,0,0.1L5,16.3l-0.5-1.3c0,0,0,0,0-0.1c0-0.1,0.1-0.1,0.2-0.1v-0.1H3.9
		c0,0,0,0,0,0v0.1C4,14.9,4,15,4.2,15.4l0.6,1.4L4.7,17c-0.1,0.1-0.1,0.2-0.2,0.2c-0.1,0-0.2-0.1-0.2-0.1c-0.1,0-0.1,0.1-0.1,0.2
		c0,0.1,0.1,0.3,0.3,0.3c0.2,0,0.3-0.1,0.4-0.3l0.7-1.9C5.6,15,5.7,14.9,5.9,14.8L5.9,14.8z"/>
	<path d="M2.2,16.7c0,0-0.1,0-0.1,0c-0.1-0.1-0.4-0.3-0.8-1c0.3-0.1,0.6-0.3,0.6-0.7c0-0.5-0.3-0.7-0.9-0.7H0v0.1
		c0.2,0,0.2,0.1,0.2,0.3c0,0.1,0,0.4,0,0.8v0.2c0,0.5,0,0.7,0,0.8c0,0.2,0,0.2-0.2,0.3v0.1h0.8v-0.1c-0.1,0-0.2-0.1-0.2-0.3
		c0-0.2,0-0.5,0-1.1v-0.9c0.1,0,0.1,0,0.2,0c0.4,0,0.6,0.3,0.6,0.6c0,0.4-0.3,0.6-0.6,0.6c0,0,0,0,0,0l0.1,0.2
		c0.5,0.8,0.7,1.1,0.9,1.1c0.1,0,0.3,0,0.4,0V16.7z"/>
	<path d="M7.7,14.3L7.7,14.3c0.3,0,0.3,0.1,0.3,0.4v1.2c0,0.2,0,0.5,0,0.6c0,0.2-0.1,0.3-0.2,0.3v0.1h0.9v-0.1
		c-0.2,0-0.2-0.1-0.2-0.3c0-0.1,0-0.3,0-0.6v-1.7c0-0.1-0.1-0.2-0.1-0.2C8.1,14.1,7.8,14.1,7.7,14.3L7.7,14.3z"/>
	<path d="M13.3,15.8c0-0.5-0.1-1-0.5-1c-0.3,0-0.5,0.4-0.5,0.9c0,0.5,0.2,1,0.5,1C13.2,16.7,13.3,16.4,13.3,15.8 M11.9,15.9
		c0-0.8,0.4-1.1,1-1.1c0.5,0,0.8,0.4,0.8,1c0,0.8-0.4,1.1-1,1.1C12.2,16.8,11.9,16.5,11.9,15.9"/>
	<path d="M17.3,15c0,0.2-0.1,0.3-0.3,0.3c0-0.1,0-0.4-0.3-0.4c-0.2,0-0.3,0.1-0.3,0.3c0,0.2,0.1,0.3,0.4,0.4
		c0.4,0.2,0.6,0.4,0.6,0.7c0,0.4-0.4,0.5-0.8,0.5c-0.4,0-0.6-0.1-0.6-0.4c0-0.2,0.2-0.3,0.4-0.3c0,0.1,0,0.1,0,0.2
		c0,0.2,0.1,0.3,0.3,0.3c0.2,0,0.4-0.1,0.4-0.3c0-0.2-0.1-0.3-0.5-0.5c-0.3-0.2-0.5-0.3-0.5-0.6c0-0.4,0.4-0.5,0.7-0.5
		C17,14.8,17.3,14.8,17.3,15"/>
	<path d="M27.2,15.8c0-0.5-0.1-1-0.5-1c-0.3,0-0.5,0.4-0.5,0.9c0,0.5,0.2,1,0.5,1C27.1,16.7,27.2,16.4,27.2,15.8 M25.9,15.9
		c0-0.8,0.4-1.1,1-1.1c0.5,0,0.8,0.4,0.8,1c0,0.8-0.4,1.1-1,1.1C26.2,16.8,25.9,16.5,25.9,15.9"/>
	<path d="M18.5,14.9c0.2,0,0.3,0.2,0.3,0.5c0,0.1,0,0.1-0.1,0.1l-0.6,0C18,15.2,18.2,14.9,18.5,14.9 M19.1,16.3
		c-0.1,0.2-0.3,0.2-0.5,0.2c-0.4,0-0.6-0.3-0.6-0.9h1c0.1,0,0.2,0,0.2-0.2c0-0.5-0.4-0.7-0.6-0.7c-0.6,0-0.9,0.5-0.9,1.1
		c0,0.7,0.4,1,0.8,1C18.9,16.8,19.1,16.6,19.1,16.3L19.1,16.3z"/>
	<path d="M28.5,16.4c0-0.1,0-0.3,0-0.5v-0.1c0-0.4,0-0.7,0-0.8c0-0.1-0.1-0.2-0.1-0.2c-0.1,0-0.4,0.1-0.5,0.1c0,0,0,0,0,0l0,0.1H28
		c0.2,0,0.2,0.3,0.2,0.7v0.2c0,0.2,0,0.5,0,0.5c0,0.2-0.1,0.3-0.2,0.3v0.1h0.9v-0.1C28.6,16.7,28.6,16.6,28.5,16.4 M28.3,14.5
		c0.1,0,0.2-0.1,0.2-0.2c0-0.1-0.1-0.2-0.2-0.2c-0.1,0-0.2,0.1-0.2,0.2C28.1,14.4,28.2,14.5,28.3,14.5"/>
	<path d="M13.9,15L13.9,15c0.2,0,0.2,0.3,0.2,0.7v0.2c0,0.6,0,0.8-0.3,0.8v0.1h0.9v-0.1c-0.2,0-0.2-0.1-0.2-0.3c0-0.1,0-0.3,0-0.6
		v-0.1c0-0.2,0-0.3,0-0.4c0.2-0.2,0.4-0.3,0.5-0.3c0.2,0,0.3,0.1,0.3,0.8c0,0.8-0.1,0.9-0.2,0.9v0.1h0.8v-0.1
		c-0.2,0-0.2-0.1-0.2-0.3v-1.2c0-0.3-0.2-0.5-0.4-0.5c-0.2,0-0.4,0.1-0.6,0.3l-0.1,0.1c0-0.1,0-0.2,0-0.2c0-0.1-0.1-0.2-0.1-0.2
		C14.3,14.8,14,14.8,13.9,15L13.9,15z"/>
	<path d="M11.6,16.1c-0.1,0.4-0.4,0.6-0.8,0.6c-0.5,0-0.8-0.4-0.8-1.2c0-0.9,0.5-1.2,0.9-1.2c0.4,0,0.6,0.2,0.7,0.6h0.1v-0.5
		c0,0,0-0.1-0.1-0.1c-0.2-0.1-0.5-0.1-0.7-0.1c-0.9,0-1.4,0.5-1.4,1.3c0,0.8,0.5,1.3,1.3,1.3c0.2,0,0.5,0,0.8-0.1c0,0,0,0,0-0.1
		c0,0,0-0.4,0.1-0.5H11.6z"/>
	<path d="M20.5,14.8c-0.2,0-0.4,0.1-0.5,0.6c0-0.3,0-0.5-0.2-0.5c0,0-0.4,0-0.5,0.1l0,0.1h0c0.3,0,0.3,0.3,0.3,0.8v0.1
		c0,0.2,0,0.5,0,0.5c0,0.2-0.1,0.3-0.2,0.3v0.1h0.9v-0.1c-0.2,0-0.3-0.1-0.3-0.3c0-0.1,0-0.2,0-0.6c0-0.4,0.2-0.7,0.3-0.7
		c0.1,0,0.1,0.2,0.1,0.2c0.1,0,0.3,0,0.3-0.2C20.8,14.8,20.7,14.8,20.5,14.8"/>
	<path d="M22.8,14.8C22.8,14.8,22.8,14.8,22.8,14.8l-0.7,0v0.1c0.1,0,0.2,0.1,0.2,0.1c0,0,0,0.1,0,0.1l-0.4,1.2l-0.4-1.3
		c0,0,0,0,0-0.1c0-0.1,0-0.1,0.2-0.1v-0.1h-0.8v0.1c0.1,0,0.1,0.1,0.2,0.3l0.6,1.6c0,0.1,0,0.1,0.1,0.1c0,0,0.1,0,0.1-0.1l0.6-1.5
		C22.6,15.1,22.6,14.9,22.8,14.8C22.8,14.9,22.8,14.9,22.8,14.8L22.8,14.8z"/>
	<path d="M30.1,14.8c-0.2,0-0.4,0.1-0.5,0.6c0-0.3,0-0.5-0.2-0.5c-0.1,0-0.4,0.1-0.6,0.1c0,0,0,0,0,0l0,0.1h0.1
		c0.3,0,0.3,0.3,0.3,0.8v0.1c0,0.2,0,0.5,0,0.5c0,0.2-0.1,0.3-0.3,0.3c0,0,0,0,0,0v0.1h1c0,0,0.1,0,0.1,0c0,0,0,0-0.1,0
		c-0.3,0-0.4-0.1-0.4-0.3c0-0.1,0-0.2,0-0.6c0-0.4,0.2-0.7,0.3-0.7c0.1,0,0.1,0.2,0.1,0.2c0.1,0,0.3,0,0.3-0.2
		C30.4,14.8,30.3,14.8,30.1,14.8"/>
	<path d="M31.3,14.9c0.2,0,0.3,0.2,0.3,0.5c0,0.1,0,0.1-0.1,0.1l-0.6,0C30.9,15.2,31,14.9,31.3,14.9 M31.9,16.3
		c-0.1,0.2-0.3,0.2-0.5,0.2c-0.4,0-0.6-0.3-0.6-0.9h1c0.1,0,0.2,0,0.2-0.2c0-0.5-0.4-0.7-0.6-0.7c-0.6,0-0.9,0.5-0.9,1.1
		c0,0.7,0.4,1,0.8,1C31.7,16.8,31.9,16.6,31.9,16.3L31.9,16.3z"/>
	<path d="M25.5,16.6c0,0-0.1,0.1-0.2,0.1c-0.1,0-0.2-0.1-0.2-0.3v-1.4h0.4c0,0,0,0,0,0v-0.1c0,0,0,0,0,0c-0.1,0-0.3,0-0.4,0v-0.4
		c0,0,0-0.1,0-0.1c0,0,0,0-0.1,0l-0.4,0.4c0,0,0,0,0,0.1c0,0,0,0,0,0h0.2c0,0.3,0,1.1,0,1.4c0,0.3,0.1,0.5,0.5,0.5
		C25.4,16.8,25.6,16.8,25.5,16.6L25.5,16.6z"/>
	<path d="M23.8,16.5c-0.1,0.1-0.2,0.1-0.3,0.1c-0.2,0-0.3-0.1-0.3-0.3c0-0.3,0.2-0.5,0.6-0.5h0.1C23.8,16,23.8,16.4,23.8,16.5
		 M24.4,16.6C24.4,16.6,24.4,16.6,24.4,16.6c-0.2,0-0.2-0.1-0.2-0.3c0-0.5,0-0.8,0-0.9c0-0.4-0.3-0.6-0.7-0.6
		c-0.4,0-0.7,0.2-0.7,0.4c0,0.1,0.1,0.2,0.2,0.2c0,0,0.1,0,0.1,0c0,0,0-0.1,0-0.2c0-0.2,0.1-0.4,0.3-0.4c0.3,0,0.4,0.3,0.4,0.7v0.1
		c-0.1,0-0.1,0-0.2,0c-0.4,0-0.9,0.2-0.9,0.7c0,0.3,0.2,0.5,0.5,0.5c0.2,0,0.4-0.1,0.5-0.2c0,0.1,0.1,0.2,0.3,0.2
		C24.3,16.8,24.4,16.8,24.4,16.6L24.4,16.6z"/>
	<path d="M6.8,16.5c-0.1,0.1-0.2,0.1-0.3,0.1c-0.2,0-0.3-0.1-0.3-0.3c0-0.3,0.2-0.5,0.6-0.5h0.1C6.9,16,6.9,16.4,6.8,16.5 M7.4,16.6
		C7.4,16.6,7.4,16.6,7.4,16.6c-0.2,0-0.2-0.1-0.2-0.3c0-0.5,0-0.8,0-0.9c0-0.4-0.3-0.6-0.7-0.6c-0.4,0-0.7,0.2-0.7,0.4
		c0,0.1,0.1,0.2,0.2,0.2c0,0,0.1,0,0.1,0c0,0,0-0.1,0-0.2c0-0.2,0.1-0.4,0.3-0.4c0.3,0,0.4,0.3,0.4,0.7v0.1c-0.1,0-0.1,0-0.2,0
		c-0.4,0-0.9,0.2-0.9,0.7c0,0.3,0.2,0.5,0.5,0.5c0.2,0,0.4-0.1,0.5-0.2c0,0.1,0.1,0.2,0.3,0.2C7.4,16.8,7.5,16.8,7.4,16.6L7.4,16.6z
		"/>
	<path d="M7.6,20c0,0.3,0.1,0.5,0.3,0.5c0.3,0,0.5-0.4,0.5-0.9c0-0.3-0.1-0.5-0.3-0.5C7.8,19.1,7.6,19.4,7.6,20 M8.7,19.6
		c0,0.7-0.4,1.1-0.8,1.1c-0.3,0-0.6-0.2-0.6-0.7c0-0.7,0.4-1.1,0.8-1.1C8.4,18.9,8.7,19.1,8.7,19.6"/>
	<path d="M15.8,19.7c0-0.5-0.1-1-0.5-1c-0.3,0-0.5,0.4-0.5,0.9c0,0.5,0.2,1,0.5,1C15.7,20.6,15.8,20.2,15.8,19.7 M14.5,19.7
		c0-0.8,0.4-1.1,0.9-1.1c0.5,0,0.8,0.4,0.8,1c0,0.8-0.4,1.1-1,1.1C14.8,20.7,14.5,20.4,14.5,19.7"/>
	<path d="M14.2,20.2c-0.1,0.2-0.3,0.3-0.5,0.3c-0.3,0-0.5-0.3-0.5-0.8c0-0.6,0.1-0.9,0.4-0.9c0.3,0,0.3,0.3,0.3,0.5
		c0.1,0,0.3,0,0.3-0.2c0-0.3-0.4-0.4-0.6-0.4c-0.5,0-0.9,0.4-0.9,1.1c0,0.7,0.4,1,0.8,1c0.4,0,0.7-0.3,0.7-0.5L14.2,20.2z"/>
	<path d="M11.4,18.6c0-0.3,0.1-0.4,0.4-0.4c0.3,0,0.5,0.2,0.5,0.5h0.1v-0.5c0,0,0-0.1,0-0.1c-0.2-0.1-0.4-0.1-0.6-0.1
		c-0.4,0-0.8,0.2-0.8,0.7c0,0.7,1.2,0.9,1.2,1.4c0,0.4-0.3,0.5-0.5,0.5c-0.3,0-0.4-0.2-0.6-0.6H11c0,0.1,0,0.4,0,0.5
		c0,0.1,0,0.1,0,0.1c0.2,0.1,0.4,0.1,0.6,0.1c0.4,0,0.8-0.2,0.8-0.7C12.5,19.3,11.4,19.2,11.4,18.6"/>
	<path d="M18.6,20.6c-0.2,0-0.2-0.1-0.2-0.3c0-0.1,0-0.3,0-0.6v-1.7c0-0.1-0.1-0.2-0.1-0.2c-0.1,0-0.4,0.1-0.5,0.1l0,0.1h0.1
		c0.2,0,0.2,0.1,0.2,0.4v1.2c0,0.2,0,0.5,0,0.6c0,0.2-0.1,0.3-0.3,0.3c0,0,0,0,0,0v0.1c0,0,0,0,0,0L18.6,20.6L18.6,20.6z"/>
	<path d="M20.7,18.8L20.7,18.8c0.2,0,0.2,0.3,0.2,0.7v0.2c0,0.6,0,0.8-0.3,0.8v0.1h0.9v-0.1c-0.2,0-0.2-0.1-0.2-0.3
		c0-0.1,0-0.3,0-0.6v-0.1c0-0.2,0-0.3,0-0.4c0.2-0.2,0.4-0.3,0.5-0.3c0.2,0,0.3,0.1,0.3,0.8c0,0.8-0.1,0.9-0.2,0.9v0.1h0.8v-0.1
		c-0.2,0-0.2-0.1-0.2-0.3v-1.2c0-0.3-0.2-0.5-0.4-0.5c-0.2,0-0.4,0.1-0.6,0.3L21.3,19c0-0.1,0-0.2,0-0.2c0-0.1-0.1-0.2-0.1-0.2
		C21.1,18.7,20.8,18.7,20.7,18.8L20.7,18.8z"/>
	<path d="M24.2,19.8c0,0.2,0,0.5,0,0.6c-0.1,0.1-0.3,0.1-0.4,0.1c-0.4,0-0.5-0.4-0.5-0.8c0-0.5,0.2-0.9,0.5-0.9
		c0.2,0,0.4,0.2,0.4,0.5V19.8z M24.8,20.5C24.8,20.5,24.7,20.5,24.8,20.5c-0.2,0-0.2-0.1-0.2-0.3v-2c0-0.1-0.1-0.2-0.1-0.2
		c-0.1,0-0.4,0.1-0.5,0.1l0,0.1H24c0.2,0,0.2,0.1,0.2,0.4v0.2c-0.1-0.1-0.3-0.1-0.4-0.1c-0.5,0-0.9,0.4-0.9,1.2
		c0,0.5,0.2,0.9,0.7,0.9c0.2,0,0.4-0.1,0.6-0.2c0,0.1,0.1,0.2,0.3,0.2C24.7,20.7,24.8,20.6,24.8,20.5L24.8,20.5z"/>
	<path d="M17.4,20.4c0,0-0.1,0.1-0.2,0.1c-0.1,0-0.2-0.1-0.2-0.3v-1.4h0.4c0,0,0,0,0,0v-0.1c0,0,0,0,0,0c-0.1,0-0.3,0-0.4,0v-0.4
		c0,0,0-0.1,0-0.1c0,0,0,0-0.1,0l-0.4,0.4c0,0,0,0,0,0.1c0,0,0,0,0,0h0.2c0,0.3,0,1.1,0,1.4c0,0.3,0.1,0.5,0.5,0.5
		C17.3,20.7,17.4,20.6,17.4,20.4L17.4,20.4z"/>
	<path d="M19.8,20.4c-0.1,0.1-0.2,0.1-0.3,0.1c-0.2,0-0.3-0.1-0.3-0.3c0-0.3,0.2-0.5,0.6-0.5h0.1C19.8,19.8,19.8,20.3,19.8,20.4
		 M20.4,20.4C20.4,20.5,20.3,20.5,20.4,20.4c-0.2,0-0.2-0.1-0.2-0.3c0-0.5,0-0.8,0-0.9c0-0.4-0.3-0.6-0.7-0.6
		c-0.4,0-0.7,0.2-0.7,0.4c0,0.1,0.1,0.2,0.2,0.2c0,0,0.1,0,0.1,0c0,0,0-0.1,0-0.2c0-0.2,0.1-0.4,0.3-0.4c0.3,0,0.4,0.3,0.4,0.7v0.1
		c-0.1,0-0.1,0-0.2,0c-0.4,0-0.9,0.2-0.9,0.7c0,0.3,0.2,0.5,0.5,0.5c0.2,0,0.4-0.1,0.5-0.2c0,0.1,0.1,0.2,0.3,0.2
		C20.3,20.7,20.4,20.6,20.4,20.4L20.4,20.4z"/>
	<path d="M10.1,17.8c-0.3,0-0.6,0.1-0.7,0.6l-0.1,0.6H9.1c0,0,0,0,0,0l0,0.2c0,0,0,0,0,0h0.2l-0.4,1.8c0,0.1-0.1,0.2-0.2,0.3l0,0.2
		c0.3-0.1,0.5-0.5,0.6-0.9l0.3-1.4h0.4l0-0.2c0,0,0,0,0,0H9.5l0.2-0.7c0.1-0.2,0.2-0.3,0.3-0.3c0.2,0,0.2,0.2,0.2,0.3
		c0.2,0,0.3,0,0.3-0.2C10.5,17.9,10.3,17.8,10.1,17.8"/>
</g>
<path id="home" d="M12.8,27.2v-9.6h6.4v9.6h8V14.4H32L16,0L0,14.4h4.8v12.8H12.8z M12.8,27.2"/>
<g id="plus">
	<g>
		<polygon points="32,13.7 18.3,13.7 18.3,0 13.7,0 13.7,13.7 0,13.7 0,18.3 13.7,18.3 13.7,32 18.3,32 18.3,18.3 32,18.3 		"/>
	</g>
</g>
<path id="minus" d="M0,0h32v4.6H0V0z"/>
<g id="layout-list">
	<g>
		<path d="M0,27.7h32v-4.3H0V27.7z M0,16h32v-4.3H0V16z M0,0v4.3h32V0H0z"/>
	</g>
</g>
<g id="layout-grid">
	<g>
		<path d="M0,32h12.2V19.8H0V32z M0,12.2h12.2V0H0V12.2z M19.6,32h12.2V19.8H19.6V32z M19.6,0v12.2h12.2V0H19.6z"/>
	</g>
</g>
<path id="video" d="M32,3.3v-2C32,0.6,31.4,0,30.7,0H1.3C0.6,0,0,0.6,0,1.3v2h3.3v3.3H0v3.3h3.3v3.3H0v3.3h3.3v3.3H0v2
	c0,0.7,0.6,1.3,1.3,1.3h29.4c0.7,0,1.3-0.6,1.3-1.3v-2h-3.3v-3.3H32v-3.3h-3.3V9.8H32V6.5h-3.3V3.3H32z M12.4,16.3V6.5l8.2,4.9
	L12.4,16.3z"/>
<path id="image" d="M31.5,0h-31C0.2,0,0,0.2,0,0.5v24.2c0,0.3,0.2,0.5,0.5,0.5h31c0.3,0,0.5-0.2,0.5-0.5V0.5C32,0.2,31.8,0,31.5,0z
	 M29,21.2L22,14c-0.1-0.1-0.2-0.1-0.3,0l-4.8,4.3l-6.2-7.6c0,0-0.1-0.1-0.2-0.1c-0.1,0-0.1,0-0.2,0.1L3,20.4V3H29L29,21.2L29,21.2z
	 M21.3,10.4c1.4,0,2.5-1.1,2.5-2.5c0-1.4-1.1-2.5-2.5-2.5c-1.4,0-2.5,1.1-2.5,2.5C18.8,9.3,19.9,10.4,21.3,10.4z"/>
<title>icon-calendar-dark</title>
<path id="calendar" d="M27,2h-4V1c0-0.6-0.4-1-1-1s-1,0.4-1,1v1H11V1c0-0.6-0.4-1-1-1S9,0.4,9,1v1H5C2.3,2,0,4.2,0,6.9
	C0,6.9,0,7,0,7v18c0,2.7,2.2,5,4.9,5c0,0,0.1,0,0.1,0h22c2.7,0,5-2.2,5-4.9c0,0,0-0.1,0-0.1V7C32,4.3,29.8,2,27,2C27.1,2,27,2,27,2
	L27,2z M2,7c0-1.6,1.4-3,3-3h4v1c0,0.6,0.4,1,1,1c0.6,0,1-0.4,1-1V4h10v1c0,0.6,0.4,1,1,1c0.6,0,1-0.4,1-1V4h4c1.6,0,3,1.4,3,3v3H2
	V7z M30,25c0,1.6-1.4,3-3,3H5c-1.6,0-3-1.4-3-3V12h28V25z M7,25c0.6,0,1-0.2,1.4-0.6c0.8-0.7,0.8-2,0.1-2.7c0,0,0,0-0.1-0.1
	c-0.7-0.8-2-0.8-2.7-0.1c0,0,0,0-0.1,0.1C5.2,22,5,22.4,5,23c0,0.5,0.2,1,0.6,1.4C6,24.8,6.4,25,7,25z M7,19c0.6,0,1-0.2,1.4-0.6
	C8.8,18,9,17.5,9,17c0-0.5-0.2-1-0.6-1.4c-0.7-0.8-2-0.8-2.7-0.1c0,0,0,0-0.1,0.1C5.2,16,5,16.4,5,17c0,0.6,0.2,1,0.6,1.4
	C6,18.8,6.4,19,7,19z M13,25c0.6,0,1-0.2,1.4-0.6c0.8-0.7,0.8-2,0.1-2.7c0,0,0,0-0.1-0.1c-0.7-0.8-2-0.8-2.7-0.1c0,0,0,0-0.1,0.1
	c-0.8,0.7-0.8,2-0.1,2.7c0,0,0,0,0.1,0.1C12,24.8,12.4,25,13,25z M13,19c0.6,0,1-0.2,1.4-0.6C14.8,18,15,17.5,15,17
	c0-0.5-0.2-1-0.6-1.4c-0.7-0.8-2-0.8-2.7-0.1c0,0,0,0-0.1,0.1C11.2,16,11,16.5,11,17c0,0.5,0.2,1,0.6,1.4C12,18.8,12.4,19,13,19z
	 M19,25c0.6,0,1-0.2,1.4-0.6C20.8,24,21,23.6,21,23c0-0.6-0.2-1-0.6-1.4c-0.7-0.8-2-0.8-2.7-0.1c0,0,0,0-0.1,0.1
	c-0.8,0.7-0.8,2-0.1,2.7c0,0,0,0,0.1,0.1C18,24.8,18.4,25,19,25z M19,19c0.6,0,1-0.2,1.4-0.6C20.8,18,21,17.6,21,17
	c0-0.5-0.2-1-0.6-1.4c-0.7-0.8-2-0.8-2.7-0.1c0,0,0,0-0.1,0.1C17.2,16,17,16.5,17,17c0,0.5,0.2,1,0.6,1.4C18,18.8,18.4,19,19,19z
	 M25,25c0.6,0,1-0.2,1.4-0.6c0.8-0.7,0.8-2,0.1-2.7c0,0,0,0-0.1-0.1c-0.7-0.8-2-0.8-2.7-0.1c0,0,0,0-0.1,0.1C23.2,22,23,22.4,23,23
	c0,0.5,0.2,1,0.6,1.4C24,24.8,24.4,25,25,25z M25,19c0.6,0,1-0.2,1.4-0.6S27,17.6,27,17c0-0.5-0.2-1-0.6-1.4c-0.7-0.8-2-0.8-2.7-0.1
	c0,0,0,0-0.1,0.1C23.2,16,23,16.5,23,17c0,0.5,0.2,1,0.6,1.4C24,18.8,24.4,19,25,19z"/>
<path id="clock" d="M17,15.6V7.3c0-0.6-0.5-1-1-1c-0.6,0-1,0.5-1,1c0,0,0,0,0,0V16c0,0.3,0.1,0.5,0.3,0.7l5.4,5.4
	c0.4,0.4,1,0.4,1.4,0s0.4-1,0-1.4L17,15.6z M32,16C32,16,32,16,32,16c0-8.8-7.2-16-16-16S0,7.2,0,16s7.2,16,16,16S32,24.8,32,16
	C32,16,32,16,32,16z M17,29.9v-1.6c0-0.6-0.5-1-1-1c-0.6,0-1,0.5-1,1v1.6C8.1,29.4,2.6,23.9,2.1,17h1.6c0.6,0,1-0.4,1-1
	c0-0.6-0.4-1-1-1c0,0,0,0-0.1,0H2.1C2.6,8.1,8.1,2.6,15,2.1v1.6c0,0.6,0.5,1,1,1c0.6,0,1-0.5,1-1V2.1c6.9,0.5,12.4,6,12.9,12.9h-1.6
	c-0.6,0-1,0.4-1,1c0,0.6,0.4,1,1,1c0,0,0,0,0.1,0h1.6C29.4,23.9,23.9,29.4,17,29.9z"/>
<path id="map-marker-alt-o" d="M12.5,32c-0.3,0-0.5-0.1-0.7-0.3C11.3,31.2,0,19.1,0,12.5C0,5.6,5.6,0,12.5,0s12.5,5.6,12.5,12.5
	c0,6.7-11.3,18.7-11.8,19.2C13,31.9,12.7,32,12.5,32z M12.5,1.8C6.6,1.8,1.8,6.6,1.8,12.5c0,4.6,7.1,13.4,10.6,17.3
	c3.5-3.8,10.6-12.7,10.6-17.3C23.1,6.6,18.3,1.8,12.5,1.8z M12.5,16.4c-2.9,0-5.3-2.4-5.3-5.3c0-2.9,2.4-5.3,5.3-5.3
	c2.9,0,5.3,2.4,5.3,5.3c0,0,0,0,0,0C17.7,14,15.4,16.4,12.5,16.4z M12.5,7.7C10.6,7.7,9,9.2,9,11.1s1.5,3.4,3.4,3.4s3.4-1.5,3.4-3.4
	l0,0C15.9,9.2,14.4,7.7,12.5,7.7z"/>
<path id="sign-language" d="M9.9,7.5c0.8-0.6,1.2-0.9,1.3-0.9l2.1-0.1l0.4,0.4c0.3,0.3,0.6,0.5,1,0.7c0.4,0.2,0.7,0.2,0.9,0
	c0.3-0.1,0.5-0.4,0.6-0.7c-0.1-0.2-0.4-0.5-1-0.8c-0.2-0.2-0.4-0.4-0.6-0.6C14.3,5.2,14,5,13.7,5c-0.3,0-0.7-0.1-1.3-0.1
	c-0.5,0-0.9,0-1,0c-0.1,0-0.5,0.1-1.2,0.3C9.6,5.3,9,5.6,8.4,5.9C8.1,6,8.1,6,8.4,5.8c1.2-0.9,1.9-1.5,2.1-1.8
	c0.6-0.2,1.1-0.3,1.4-0.5c0.3-0.1,0.5-0.2,0.8-0.3C13.4,3.1,13.9,3,13.9,3c0.3-0.1,0.5-0.3,0.6-0.6c0.1-0.3,0.1-0.6-0.2-0.8
	c-0.2-0.1-0.3-0.1-0.5-0.1c-0.2,0-0.5,0.1-0.8,0.1c-0.3,0.1-0.6,0.1-0.9,0.1c-0.6,0-1.5,0.4-2.7,1.1c-0.5,0.3-1,0.6-1.5,1
	C7.5,4.3,7.1,4.5,7.1,4.6C6.5,5,7.1,4.2,8.7,2.1C8.9,2,9,1.9,9,1.7c0.1-0.1,0.2-0.2,0.3-0.4C9.5,1.2,9.5,1,9.5,0.7
	c0-0.2-0.1-0.4-0.2-0.6C9.1,0,9,0,8.9,0S8.7,0.2,8.5,0.5S8.1,1,8,1.1c0,0-0.1,0.1-0.2,0.2S7.5,1.6,7.3,1.8C7.2,2,7,2.2,6.9,2.4
	c0,0.1-0.2,0.2-0.4,0.4C6.3,2.9,6.1,3.1,6,3.3c-0.2,0.3-0.4,0.6-0.6,1C5.2,4.6,5,4.9,4.9,5.2C4.8,5.3,4.6,5.4,4.5,5.6
	C4.3,5.8,4.2,6,4.1,6.2c-0.5,1-0.9,2-1.2,3.1c-0.3,1.2-0.8,2.1-1.2,2.7c-0.2,0.3-0.7,0.7-1.6,1.1c-0.3,2.9,0.1,5.2,1.4,7
	c1-0.6,1.7-0.9,2.3-1.1s1.3-0.3,2.1-0.3c0.2,0,0.5,0.1,0.8,0.2C7.1,19,7.4,19,7.6,19c0,0,0.6-0.2,1.6-0.5c0.3-0.1,0.7-0.3,1.2-0.5
	c0.5-0.2,0.9-0.3,1.2-0.5c0.2,0,0.4-0.1,0.8-0.2c0.4-0.1,0.7-0.2,0.9-0.3c0.1,0,0.2-0.1,0.3-0.1c0.1,0,0.1-0.1,0.2-0.2
	c0.1-0.1,0.1-0.2,0.2-0.2c0.2-0.2,0.3-0.5,0.5-1c0.1-0.4,0.2-0.8,0.3-1c0.3-0.6,0.5-1,0.5-1.2c0-0.2-0.1-0.3-0.2-0.4
	c0.2-0.6,0.2-1.2,0.2-1.8c0-0.2,0-0.3,0-0.5c0-0.2,0-0.3-0.1-0.5c-0.1-0.2-0.2-0.3-0.4-0.4c-1.7-1.3-2.6-2-2.8-2
	c-1.7,0-2.9,0.2-3.4,0.6c-0.1,0-0.1,0.1-0.2,0.1c0,0,0,0,0,0c0,0,0,0,0,0c0-0.1,0-0.2,0.1-0.3C8.7,8.5,9.1,8.2,9.9,7.5z M8.6,11.7
	c0-0.1,0.1-0.1,0.1-0.2c0-0.1,0.1-0.1,0.2-0.2c0.1,0,0.1-0.1,0.2-0.1c0.2-0.2,0.5-0.3,0.9-0.4c0.4-0.1,0.9-0.3,1.6-0.7l0.1,0.1
	c0,0,0.1,0.1,0.2,0.2c0.1,0.1,0.2,0.2,0.4,0.3c0.2,0.1,0.3,0.2,0.5,0.3c0.2,0.1,0.4,0.2,0.6,0.3l0.1,0.4c0.1,0.3,0.2,0.6,0.3,0.8
	c0.1,0.3,0.3,0.5,0.5,0.7c-0.4,0.3-0.7,0.6-1,1c-0.2,0.3-0.4,0.6-0.5,0.8c-0.1,0.2-0.1,0.3-0.2,0.3c-1.1-0.2-2.1-0.1-2.9,0.2
	c-0.2-0.4-0.5-0.8-0.8-1.1c-0.3-0.3-0.6-0.5-0.7-0.7c-0.1-0.2-0.2-0.4-0.1-0.7c0.1-0.1,0.1-0.3,0.1-0.4c0-0.1,0.1-0.2,0.1-0.3
	c0,0,0.1-0.1,0.1-0.2C8.5,11.8,8.6,11.7,8.6,11.7z M31.9,11.4c0-0.4-0.1-0.8-0.2-1.1c-0.1-0.3-0.1-0.6-0.2-0.9
	c-0.1-0.3-0.2-0.6-0.3-0.8C31.1,8.3,31,8,31,7.9c-0.1-0.1-0.2-0.3-0.3-0.4c-0.1-0.1-0.2-0.2-0.2-0.3l-0.1-0.1
	c-0.9,0.5-1.7,0.9-2.2,1.1c-0.6,0.2-1.3,0.3-2.2,0.2c-0.3,0-0.5-0.1-0.8-0.1c-0.3-0.1-0.6-0.1-0.9-0.1c-0.1,0-0.6,0.2-1.6,0.5
	c-0.3,0.1-0.7,0.2-1.2,0.4c-0.5,0.2-0.9,0.3-1.2,0.5c-0.2,0-0.4,0.1-0.8,0.2c-0.3,0-0.6,0.1-0.9,0.2c-0.1,0-0.2,0.1-0.3,0.1
	c-0.1,0-0.2,0.1-0.3,0.2c-0.1,0.1-0.1,0.1-0.2,0.2c-0.2,0.2-0.3,0.5-0.5,0.9c-0.1,0.3-0.2,0.7-0.4,1c-0.3,0.6-0.5,1-0.5,1.2
	c0,0.2,0.1,0.3,0.3,0.4c-0.2,0.6-0.3,1.2-0.3,1.8c0,0.2,0.1,0.3,0,0.5c0,0.1,0,0.3,0.1,0.4c0.1,0.2,0.2,0.3,0.4,0.4
	c1.7,1.3,2.7,2,2.8,2c1.8-0.1,2.9-0.3,3.4-0.6l0.2-0.1c0,0,0,0.1-0.1,0.3c0,0-0.5,0.4-1.2,0.9c-0.8,0.6-1.2,0.9-1.4,0.9l-2.1,0.2
	l-0.5-0.4c-0.3-0.3-0.6-0.5-1-0.7c-0.4-0.2-0.7-0.2-0.9,0c-0.3,0.2-0.5,0.4-0.6,0.7c0.1,0.2,0.5,0.5,1.1,0.9
	c0.2,0.1,0.4,0.3,0.6,0.5c0.3,0.3,0.5,0.4,0.8,0.5c0.4,0,0.8,0.1,1.3,0.1c0.5,0,0.9,0,0.9,0.1c0.1,0,0.6-0.1,1.3-0.4
	c0.6-0.2,1.3-0.5,1.9-0.7c0.3-0.2,0.3-0.1,0,0.1c-1.2,0.9-1.9,1.4-2.1,1.7c-0.6,0.2-1.1,0.4-1.4,0.5c-0.2,0.1-0.5,0.2-0.8,0.3
	c-0.8,0.2-1.3,0.3-1.4,0.3c-0.3,0.1-0.5,0.3-0.6,0.6c-0.1,0.3-0.1,0.5,0.1,0.7c0.2,0.1,0.4,0.1,0.6,0.1c0.2,0,0.4-0.1,0.8-0.1
	c0.3-0.1,0.6-0.1,1-0.1c0.5,0,1.4-0.3,2.7-1c0.3-0.2,0.6-0.4,0.9-0.6c0.3-0.2,0.6-0.4,0.8-0.7c0.3-0.2,0.5-0.4,0.6-0.5
	c0.6-0.4,0,0.5-1.7,2.5c-0.1,0.1-0.1,0.2-0.2,0.3c-0.1,0.1-0.2,0.3-0.4,0.4c-0.1,0.2-0.2,0.4-0.1,0.6c0,0.2,0.1,0.4,0.2,0.6
	c0.1,0.2,0.2,0.2,0.4,0.1c0.1,0,0.2-0.2,0.4-0.5c0.2-0.3,0.4-0.4,0.5-0.5c0,0,0.1-0.1,0.2-0.3s0.2-0.3,0.4-0.5
	c0.1-0.2,0.3-0.4,0.5-0.5l0.5-0.5c0.2-0.1,0.3-0.3,0.4-0.5c0.3-0.3,0.5-0.6,0.6-1c0.2-0.4,0.4-0.7,0.5-0.9c0,0,0.2-0.2,0.3-0.4
	c0.2-0.2,0.3-0.4,0.5-0.6c0.4-0.9,0.8-1.9,1.1-3.1c0.3-1.2,0.7-2.1,1.2-2.8c0.2-0.3,0.7-0.6,1.6-1c0.1-0.5,0.1-0.9,0.1-1.4
	C32,12.2,32,11.8,31.9,11.4z M23.9,14.2c-0.2,0.6-0.4,1-0.4,1.2c-0.1,0.1-0.2,0.3-0.5,0.5c-0.3,0.2-0.6,0.3-1,0.4
	c-0.4,0.1-0.9,0.3-1.5,0.7l-0.2-0.2c-0.1-0.1-0.4-0.3-0.7-0.5c-0.3-0.2-0.6-0.3-0.9-0.4v-0.1c0,0,0-0.1,0-0.1c0-0.1,0-0.1-0.1-0.2
	c0-0.1-0.1-0.2-0.1-0.3c0-0.1-0.1-0.2-0.1-0.3c0-0.1-0.1-0.2-0.1-0.3c0-0.1-0.1-0.2-0.2-0.3l-0.2-0.3c0-0.1-0.1-0.1-0.2-0.2
	c0.4-0.3,0.7-0.6,1-1c0.3-0.3,0.4-0.6,0.5-0.8c0.1-0.2,0.1-0.3,0.2-0.3c1.2,0.1,2.1,0,2.9-0.3c0.2,0.4,0.5,0.8,0.9,1.2
	c0.3,0.3,0.6,0.5,0.7,0.7C23.9,13.8,24,14,23.9,14.2z"/>
<path id="relaxed-performance" d="M0,0h15.3c3.5,0,6.2,0.8,7.9,2.3c1.8,1.5,2.6,3.6,2.6,6.4c0,1.3-0.2,2.6-0.7,3.8
	c-0.4,0.9-0.9,1.7-1.6,2.4c-0.5,0.6-1.1,1-1.8,1.3c-0.6,0.3-1,0.4-1.3,0.5v0.1c0.5,0.1,1.1,0.2,1.5,0.4c0.6,0.3,1.1,0.7,1.5,1.1
	c0.5,0.6,0.9,1.3,1.2,2c0.3,1,0.5,2.1,0.4,3.1c0,1.7,0.1,3.4,0.4,5.1c0.3,1.5,0.7,2.6,1.3,3.3h-6c-0.4-0.7-0.7-1.5-0.7-2.3
	c-0.1-0.8-0.1-1.6-0.1-2.4c0-1.3-0.1-2.5-0.3-3.8c-0.1-0.9-0.5-1.8-1-2.6c-0.5-0.7-1.1-1.3-1.9-1.6c-1-0.4-2.1-0.5-3.2-0.5H5.6V32H0
	V0z M5.6,14.6h9.2c1.8,0,3.1-0.4,4.1-1.3c0.9-0.9,1.4-2.1,1.4-3.8c0-0.9-0.1-1.7-0.4-2.5c-0.3-0.6-0.7-1.1-1.2-1.5
	c-0.5-0.4-1.2-0.6-1.8-0.7c-0.7-0.1-1.4-0.2-2.1-0.2H5.6V14.6z"/>
<path id="minus-square" d="M28,0H4C1.8,0,0,1.8,0,4v24c0,2.2,1.8,4,4,4h24c2.2,0,4-1.8,4-4V4C32,1.8,30.2,0,28,0L28,0z M26,18H6v-4
	h20V18z M26,18"/>
<path id="plus-square" d="M28,0H4C1.8,0,0,1.8,0,4v24c0,2.2,1.8,4,4,4h24c2.2,0,4-1.8,4-4V4C32,1.8,30.2,0,28,0L28,0z M26,18h-8v8
	h-4v-8H6v-4h8V6h4v8h8V18z M26,18"/>
<polygon id="star" points="16,0 20.9,10 32,11.6 24,19.4 25.9,30.4 16,25.2 6.1,30.4 8,19.4 0,11.6 11.1,10 "/>
<path id="brand-marque" d="M0,0h2.3v32H0V0z M8.1,32h2.3V0H8.1V32z M12.2,10.7h2.3V0h-2.3V10.7z M20.3,10.7h2.3V0h-2.3V10.7z
	 M14.5,21.3h-2.3V32h2.3V21.3z M18.5,21.3h-2.3V32h2.3V21.3z M16.3,19.6h2.3V0h-2.3V19.6z M22.6,12.4h-2.3V32h2.3V12.4z M4.1,19.6
	h2.3V0H4.1V19.6z"/>
</svg>
